<svg width="471" height="458" viewBox="0 0 471 458" fill="none" xmlns="http://www.w3.org/2000/svg">
<path fill-rule="evenodd" clip-rule="evenodd" d="M235.205 456.729C235.048 456.886 234.121 454.922 233.145 452.366C232.169 449.809 230.273 445.69 228.932 443.211L226.494 438.705L222.674 438.293C220.573 438.066 215.663 437.539 211.764 437.121C207.864 436.704 201.048 435.649 196.617 434.777C192.186 433.905 184.417 432.026 179.352 430.6C174.287 429.175 166.601 426.702 162.272 425.105C157.942 423.508 148.89 419.49 142.154 416.174C134.887 412.597 125.978 407.55 120.24 403.76C114.923 400.247 107.527 394.942 103.805 391.971C100.083 389 92.1042 381.623 86.0752 375.577C80.0462 369.531 72.5297 361.249 69.372 357.172C66.2143 353.095 61.4516 346.431 58.7883 342.363C56.1249 338.295 51.9833 331.365 49.5847 326.964C47.1861 322.563 43.7811 315.595 42.018 311.48C40.2549 307.365 37.6079 300.518 36.1358 296.264C34.6637 292.01 32.4754 284.716 31.273 280.055C30.0706 275.394 28.5083 268.249 27.8013 264.177C27.0943 260.105 26.1966 253.477 25.8066 249.448C25.4165 245.419 24.9468 240.86 24.7626 239.316L24.4279 236.508L17.8712 233.439C14.265 231.75 9.30589 229.71 6.851 228.905L2.38757 227.441L7.49553 225.593C10.3049 224.577 15.3589 222.37 18.7266 220.688L24.8496 217.631L25.6224 208.942C26.0475 204.164 26.8706 197.348 27.4515 193.796C28.0324 190.244 29.1862 184.292 30.0155 180.57C30.8449 176.848 32.5768 170.341 33.8644 166.111C35.1519 161.88 37.5266 155.064 39.1414 150.964C40.7563 146.864 44.2022 139.304 46.799 134.164C49.3958 129.024 53.6091 121.483 56.162 117.406C58.7148 113.33 62.8362 107.239 65.3207 103.871C67.8052 100.503 72.3322 94.8501 75.3809 91.3082C78.4295 87.7663 83.6792 82.1322 87.0469 78.788C90.4145 75.4437 95.6352 70.6537 98.6484 68.1434C101.662 65.6331 107.192 61.3467 110.937 58.6181C114.683 55.8895 121.209 51.5885 125.439 49.0604C129.67 46.5322 136.611 42.7736 140.865 40.7079C145.119 38.6422 150.92 36.0213 153.756 34.8838C156.592 33.7462 162.248 31.6686 166.324 30.267C170.401 28.8655 177.55 26.7363 182.211 25.5356C186.872 24.3349 194.123 22.7539 198.324 22.0224C202.525 21.2908 209.588 20.3883 214.02 20.0167C218.451 19.6452 223.016 19.2053 224.164 19.0391C225.981 18.7763 226.589 18.133 228.836 14.0921C230.257 11.5375 232.218 7.4931 233.193 5.10464C234.169 2.71619 235.184 0.758425 235.45 0.754056C235.716 0.749688 235.934 1.25571 235.934 1.87856C235.934 2.50141 237.356 5.90937 239.095 9.45181C240.834 12.9942 242.85 16.6447 243.574 17.5639C244.825 19.1513 245.29 19.2563 252.82 19.6546C257.18 19.8852 264.519 20.6606 269.127 21.3776C273.735 22.0947 281.663 23.706 286.743 24.9583C291.824 26.2105 299.945 28.5578 304.79 30.1744C309.635 31.791 317.431 34.8091 322.114 36.8812C326.797 38.9533 333.822 42.3916 337.726 44.5218C341.629 46.6521 347.659 50.1796 351.125 52.3607C354.592 54.5419 360.635 58.7331 364.555 61.6745C368.476 64.6159 374.421 69.4668 377.768 72.4544C381.115 75.4419 386.717 80.8775 390.218 84.5334C393.718 88.1893 399.038 94.2534 402.038 98.0092C405.039 101.765 409.892 108.463 412.824 112.895C415.755 117.326 419.829 123.997 421.877 127.719C423.925 131.441 426.601 136.662 427.823 139.32C429.045 141.979 431.146 146.91 432.492 150.277C433.838 153.645 436.002 159.697 437.301 163.726C438.599 167.756 440.377 173.992 441.252 177.584C442.126 181.176 443.415 187.391 444.114 191.394C444.814 195.397 445.697 202.068 446.077 206.218C446.456 210.368 446.909 214.71 447.084 215.866C447.364 217.724 447.94 218.242 452.043 220.328C454.596 221.627 459.399 223.75 462.716 225.047L468.747 227.405L463.683 229.201C460.898 230.189 456.095 232.263 453.01 233.812C447.929 236.362 447.372 236.824 447.084 238.73C446.909 239.887 446.452 244.267 446.068 248.462C445.684 252.658 444.646 260.054 443.762 264.898C442.877 269.742 441.117 277.476 439.85 282.084C438.584 286.692 436.275 293.982 434.72 298.284C433.165 302.585 430.325 309.571 428.408 313.807C426.492 318.043 422.861 325.195 420.339 329.699C417.818 334.204 413.965 340.561 411.777 343.825C409.589 347.089 405.71 352.526 403.157 355.907C400.604 359.288 395.759 365.108 392.39 368.839C389.02 372.57 383.381 378.29 379.858 381.549C376.334 384.808 370.716 389.656 367.373 392.323C364.03 394.99 358.83 398.867 355.816 400.94C352.803 403.012 347.616 406.356 344.289 408.371C340.962 410.386 334.582 413.861 330.11 416.094C325.637 418.327 318.329 421.631 313.869 423.438C309.408 425.245 301.867 427.891 297.111 429.319C292.354 430.747 285.272 432.627 281.373 433.496C277.474 434.365 270.368 435.652 265.582 436.354C260.796 437.057 254.05 437.828 250.59 438.068L244.298 438.504L241.734 442.895C240.324 445.31 238.342 449.346 237.33 451.864C236.318 454.382 235.362 456.571 235.205 456.729ZM225.053 417.645C226.537 417.744 226.947 417.285 228.43 413.864C229.359 411.723 230.713 407.645 231.438 404.803C232.164 401.961 233.179 395.665 233.694 390.811C234.209 385.957 234.634 379.739 234.638 376.991C234.641 374.244 234.892 371.996 235.195 371.996C235.498 371.996 235.949 375.984 236.197 380.858C236.445 385.733 237.086 392.895 237.622 396.775C238.158 400.655 239.441 406.462 240.472 409.681C241.503 412.9 242.716 416.015 243.168 416.604C243.902 417.56 244.85 417.61 252.047 417.069C256.478 416.736 263.584 415.879 267.838 415.166C272.092 414.452 279.361 412.873 283.992 411.656C288.623 410.439 295.584 408.301 299.461 406.904C303.338 405.507 308.975 403.301 311.988 402.001C315.001 400.701 320.802 397.876 324.879 395.724C328.956 393.571 335.916 389.436 340.348 386.535C344.779 383.634 351.45 378.818 355.172 375.833C358.894 372.849 365.713 366.631 370.325 362.017C374.937 357.402 381.027 350.73 383.86 347.19C386.692 343.65 391.624 336.834 394.819 332.044C398.014 327.253 402.841 318.983 405.547 313.666C408.252 308.349 411.776 300.663 413.379 296.586C414.981 292.509 417.342 285.558 418.626 281.138C419.911 276.719 421.674 269.613 422.545 265.347C423.415 261.082 424.606 253.339 425.19 248.142C425.774 242.944 426.086 238.26 425.884 237.732C425.681 237.205 423.218 235.887 420.409 234.804C417.601 233.721 413.179 232.246 410.583 231.526C407.987 230.807 402.941 229.79 399.37 229.267C395.799 228.744 390.484 228.264 387.56 228.2C384.635 228.136 382.242 227.879 382.242 227.627C382.242 227.376 385.07 226.983 388.526 226.754C391.983 226.525 397.136 225.927 399.978 225.424C402.82 224.922 407.026 224.024 409.324 223.429C411.622 222.834 416.213 221.309 419.526 220.041C422.839 218.773 425.711 217.316 425.907 216.804C426.104 216.292 425.919 212.684 425.496 208.786C425.073 204.889 424.297 199.193 423.771 196.13C423.245 193.067 421.975 187.08 420.949 182.826C419.922 178.572 418.023 171.926 416.728 168.056C415.433 164.187 413.348 158.531 412.095 155.488C410.841 152.445 407.975 146.33 405.725 141.898C403.475 137.467 399.994 131.231 397.988 128.041C395.983 124.851 391.937 119.05 388.998 115.15C386.059 111.251 381.031 105.163 377.826 101.621C374.622 98.08 369.156 92.6238 365.68 89.4966C362.205 86.3694 356.147 81.3773 352.219 78.4029C348.291 75.4285 341.91 71.0679 338.04 68.7127C334.169 66.3575 327.896 62.8667 324.099 60.9553C320.302 59.0439 314.647 56.4193 311.531 55.1229C308.415 53.8265 302.095 51.4841 297.486 49.9174C292.878 48.3507 285.59 46.2224 281.292 45.1878C276.993 44.1531 269.887 42.738 265.501 42.0431C261.114 41.3482 255.495 40.6083 253.014 40.399C250.532 40.1897 247.31 39.8717 245.853 39.6923C243.206 39.3664 243.203 39.3685 241.851 42.5124C241.107 44.2429 239.916 47.8075 239.206 50.4338C238.495 53.0602 237.611 57.6743 237.242 60.6875C236.873 63.7007 236.382 69.864 236.153 74.3838C235.923 78.9036 235.49 82.6016 235.19 82.6016C234.89 82.6016 234.641 80.6438 234.638 78.251C234.634 75.8582 234.2 69.8431 233.674 64.8841C233.148 59.9252 232.105 53.4243 231.357 50.4377C230.609 47.4511 229.456 43.7463 228.795 42.2049L227.594 39.4021L223.868 39.7655C221.819 39.9654 216.372 40.5679 211.764 41.1044C207.155 41.641 199.469 42.934 194.684 43.9778C189.898 45.0216 183.227 46.709 179.859 47.7276C176.492 48.7461 170.836 50.6467 167.291 51.951C163.746 53.2553 155.625 56.8936 149.244 60.0362C142.863 63.1788 133.911 68.232 129.35 71.2655C124.789 74.299 118.263 79.0048 114.848 81.7229C111.433 84.441 104.847 90.4638 100.212 95.1069C95.5768 99.75 89.4174 106.532 86.5242 110.177C83.6309 113.823 79.1171 120.059 76.4935 124.035C73.8698 128.011 70.1166 134.208 68.153 137.807C66.1894 141.405 63.1289 147.641 61.3519 151.664C59.5749 155.687 56.8382 162.749 55.2703 167.357C53.7025 171.966 51.6608 178.927 50.7333 182.826C49.8059 186.726 48.4601 193.357 47.7427 197.562C47.0252 201.768 46.2537 208.025 46.0282 211.467L45.6181 217.724L51.9917 220.097C55.4971 221.402 60.6127 223.036 63.3596 223.73C66.1065 224.423 71.3644 225.437 75.0439 225.983C78.7233 226.53 83.4368 226.981 85.5182 226.986C88.1995 226.993 89.0209 227.178 88.3359 227.621C87.8042 227.965 85.4839 228.252 83.1797 228.26C80.8755 228.267 76.0898 228.708 72.5449 229.24C69 229.772 63.8591 230.785 61.1207 231.492C58.3823 232.199 53.8867 233.669 51.1305 234.759C48.3742 235.849 45.8827 236.97 45.5938 237.25C45.3049 237.53 45.3869 240.772 45.7762 244.453C46.1654 248.134 47.0648 254.627 47.775 258.881C48.4851 263.135 50.0738 270.471 51.3055 275.184C52.5371 279.897 54.8629 287.438 56.4738 291.942C58.0847 296.446 61.8312 305.07 64.7993 311.106C67.8928 317.398 72.9339 326.2 76.6115 331.731C80.14 337.039 86.0627 345.006 89.7732 349.438C93.4836 353.869 99.628 360.462 103.427 364.09C107.227 367.717 113.289 373.064 116.899 375.973C120.509 378.881 127.378 383.838 132.164 386.988C136.95 390.138 145.796 395.144 151.822 398.111C157.849 401.079 166.55 404.857 171.158 406.507C175.767 408.157 183.933 410.629 189.306 412.001C194.678 413.373 203.234 415.081 208.319 415.797C213.404 416.513 218.87 417.197 220.465 417.316C222.06 417.435 224.125 417.583 225.053 417.645ZM151.268 358.4C147.319 358.367 142.203 357.962 139.898 357.5C137.594 357.037 133.824 356.028 131.52 355.257C129.215 354.486 125.239 352.735 122.684 351.365C120.129 349.996 116.43 347.661 114.464 346.177C112.498 344.692 110.026 342.304 108.971 340.869C107.574 338.97 107.235 338.04 107.725 337.449C108.258 336.807 108.826 336.889 110.452 337.84C111.582 338.502 114.681 339.765 117.34 340.648C119.999 341.531 124.204 342.448 126.686 342.686C129.342 342.94 132.92 342.808 135.387 342.364C137.691 341.95 141.613 340.637 144.102 339.447C147.314 337.912 149.799 336.066 152.658 333.088C155.13 330.514 157.433 327.297 158.619 324.764C159.681 322.493 161.045 318.487 161.65 315.861C162.609 311.695 162.751 306.823 162.764 277.572C162.778 246.897 162.679 243.729 161.599 240.189C160.95 238.063 159.547 234.953 158.482 233.279C157.416 231.605 155.496 229.314 154.214 228.188C152.932 227.063 149.984 225.242 147.663 224.142C143.773 222.299 142.915 222.143 136.676 222.148C130.71 222.153 129.475 222.356 126.25 223.863C124.239 224.803 121.234 226.824 119.574 228.354C117.914 229.885 115.657 232.444 114.557 234.041L112.559 236.945L112.028 234.389C111.715 232.882 111.769 230.562 112.16 228.739C112.525 227.037 113.406 224.502 114.119 223.106C114.831 221.71 116.291 219.569 117.362 218.349C118.433 217.129 120.747 215.208 122.505 214.08C124.263 212.952 127.808 211.277 130.383 210.358C134.448 208.906 136.125 208.683 143.121 208.659C148.705 208.64 152.723 208.991 156.214 209.801C158.984 210.444 161.695 210.799 162.239 210.59C163.115 210.254 163.193 206.455 162.922 177.183C162.667 149.572 162.441 143.361 161.546 139.32C160.957 136.662 159.422 132.311 158.136 129.652C156.501 126.273 154.521 123.544 151.554 120.582C149.114 118.146 145.804 115.62 143.766 114.64C141.816 113.701 138.492 112.49 136.379 111.947C134.266 111.405 130.641 110.965 128.323 110.97C126.004 110.976 122.222 111.423 119.918 111.964C117.614 112.506 113.76 113.854 111.355 114.961C108.131 116.445 106.792 116.784 106.261 116.253C105.729 115.722 106.004 114.924 107.304 113.219C108.275 111.947 110.567 109.712 112.399 108.254C114.23 106.795 118.629 104.21 122.174 102.509C125.719 100.807 131.084 98.8108 134.098 98.0716C137.111 97.3325 142.788 96.5542 146.713 96.3421C152.011 96.0558 155.582 96.2459 160.571 97.0799C164.267 97.6978 169.901 99.0775 173.092 100.146C176.282 101.214 181.389 103.341 184.439 104.873L189.986 107.658L194.752 106.402C197.373 105.712 204.889 104.15 211.453 102.931C218.018 101.712 228.749 100.071 235.301 99.2848C244.934 98.1288 250.851 97.845 266.227 97.8017C278.767 97.7663 287.325 98.0383 291.363 98.6007C294.731 99.0697 300.822 100.184 304.898 101.077C308.975 101.97 315.066 103.725 318.434 104.977C321.801 106.229 326.172 108.066 328.147 109.058C330.122 110.051 334.338 112.602 337.516 114.728C340.771 116.905 345.611 121.006 348.599 124.118C351.516 127.157 355.254 131.732 356.906 134.286C358.558 136.839 360.837 141.127 361.97 143.814C363.103 146.501 364.672 151.158 365.455 154.161C366.426 157.883 366.99 162.394 367.226 168.324C367.49 174.971 367.314 178.395 366.48 182.826C365.88 186.017 364.642 190.498 363.73 192.784C362.817 195.071 361.053 198.696 359.81 200.841C358.567 202.986 355.192 207.061 352.31 209.896C349.428 212.732 345.42 216.026 343.405 217.215C341.389 218.404 337.981 220.088 335.831 220.956C333.681 221.824 329.846 223.062 327.308 223.707L322.694 224.878L326.526 225.987C328.633 226.597 332.32 227.928 334.719 228.946C337.118 229.963 341.034 232.063 343.421 233.611C345.807 235.159 349.446 237.971 351.507 239.859C353.567 241.748 356.559 244.99 358.154 247.063C359.749 249.137 362.324 253.224 363.875 256.146C365.426 259.068 367.446 264.056 368.363 267.229C369.28 270.403 370.346 275.9 370.731 279.445C371.25 284.21 371.236 287.633 370.681 292.571C370.267 296.245 369.217 301.707 368.348 304.708C367.478 307.709 365.918 312.037 364.88 314.325C363.843 316.613 361.49 320.661 359.651 323.32C357.813 325.98 354.334 330.018 351.921 332.295C349.507 334.571 345.844 337.581 343.779 338.982C341.715 340.384 337.415 342.84 334.225 344.442C331.034 346.043 325.813 348.227 322.623 349.295C319.433 350.363 313.487 351.975 309.41 352.877C305.333 353.779 298.082 355.04 293.297 355.678C286.375 356.601 280.113 356.84 262.682 356.844C249.045 356.847 238.09 356.539 233.678 356.029C229.778 355.577 223.397 354.763 219.498 354.218C215.599 353.674 207.233 352.201 200.908 350.945L189.407 348.662L183.505 351.244C180.259 352.665 175.66 354.421 173.285 355.146C170.91 355.872 166.6 356.914 163.707 357.463C160.735 358.027 155.325 358.435 151.268 358.4ZM252.931 340.955C259.952 341.022 266.19 340.705 270.534 340.06C274.234 339.51 279.768 338.334 282.831 337.447C285.893 336.559 290.589 334.687 293.265 333.286C295.941 331.885 299.793 329.271 301.824 327.478C303.855 325.684 307.074 321.843 308.976 318.941C310.878 316.04 313.207 311.781 314.151 309.477C315.094 307.172 316.463 302.967 317.192 300.131C318.041 296.828 318.651 291.831 318.889 286.228C319.123 280.706 318.969 275.49 318.47 272.079C318.036 269.107 316.874 264.275 315.888 261.341C314.902 258.407 313.113 254.343 311.914 252.309C310.714 250.275 307.702 246.565 305.221 244.063C302.075 240.892 299.147 238.705 295.553 236.843C292.717 235.375 287.931 233.529 284.918 232.742C280.772 231.66 276.915 231.235 269.06 230.997C261.795 230.776 257.959 230.92 256.275 231.475C254.952 231.912 252.9 233.121 251.715 234.161C250.53 235.202 248.802 237.346 247.876 238.926C246.951 240.506 245.208 244.807 244.003 248.483C242.799 252.16 241.074 258.961 240.17 263.597C239.266 268.233 238.081 275.74 237.537 280.278C236.992 284.816 236.321 292.01 236.045 296.264L235.543 303.998L235.062 298.842C234.797 296.006 234.146 289.665 233.614 284.752C233.082 279.838 232.197 273.167 231.647 269.927C231.097 266.688 229.795 260.712 228.754 256.648C227.713 252.584 225.588 246.57 224.031 243.283C222.188 239.394 220.053 236.095 217.914 233.833C215.948 231.754 213.016 229.565 210.617 228.385C208.412 227.3 205.157 226.047 203.385 225.601C201.612 225.155 199.927 224.597 199.639 224.361C199.351 224.125 200.366 223.734 201.894 223.492C203.423 223.25 207.039 221.91 209.929 220.514C213.912 218.591 215.992 217.076 218.517 214.259C220.349 212.214 222.966 208.221 224.332 205.385C225.699 202.549 227.428 198.343 228.176 196.039C228.924 193.735 230.238 188.369 231.096 184.115C231.955 179.861 233.094 172.03 233.628 166.713C234.162 161.396 234.812 154.145 235.071 150.6L235.543 144.154L236.031 151.244C236.299 155.144 236.834 161.234 237.219 164.779C237.604 168.324 238.497 174.56 239.203 178.637C239.91 182.713 241.23 188.804 242.137 192.172C243.045 195.54 244.728 200.325 245.877 202.807C247.025 205.288 248.775 208.274 249.765 209.441C250.755 210.609 252.761 212.204 254.223 212.986C256.685 214.304 257.711 214.405 268.16 214.36C277.285 214.321 280.59 214.047 285.464 212.925C288.777 212.162 293.632 210.507 296.252 209.247C299.123 207.866 302.381 205.619 304.452 203.592C306.342 201.742 308.923 198.343 310.187 196.039C311.452 193.735 313.081 189.964 313.807 187.66C314.534 185.356 315.486 181.73 315.923 179.604C316.359 177.477 316.703 171.821 316.685 167.035C316.665 161.388 316.267 156.524 315.553 153.178C314.948 150.342 313.613 145.846 312.586 143.188C311.559 140.529 309.567 136.595 308.159 134.445C306.751 132.296 304.064 128.989 302.187 127.097C300.311 125.205 296.835 122.393 294.463 120.847C292.091 119.302 288.756 117.439 287.051 116.707C285.346 115.976 281.486 114.659 278.473 113.781C275.459 112.903 270.094 111.77 266.549 111.263C262.763 110.721 255.051 110.34 247.857 110.34C240.6 110.34 232.928 110.722 229.023 111.277C225.4 111.792 220.048 112.823 217.13 113.568C214.213 114.313 211.309 115.198 210.678 115.536C209.596 116.115 209.521 118.953 209.358 165.748L209.186 215.346L207.495 217.036C206.565 217.966 202.737 219.96 198.988 221.467L192.17 224.207L198.422 226.667C202.728 228.362 205.426 229.873 207.091 231.521L209.508 233.915V280.095C209.508 317.737 209.671 326.667 210.391 328.389C210.876 329.551 212.531 331.578 214.068 332.894C215.911 334.472 218.543 335.816 221.806 336.847C224.525 337.706 229.179 338.85 232.148 339.389C235.116 339.928 238.56 340.478 239.801 340.611C241.041 340.744 246.95 340.899 252.931 340.955Z" fill="black" stroke="black"/>
</svg>
